SplineFontDB: 3.2
FontName: KleaFloridan
FullName: KleaFloridan
FamilyName: KleaFloridan
Weight: Regular
Copyright: Copyright (c) 2025, Klea
UComments: "2025-10-16: Created with FontForge (http://fontforge.org)"
Version: 001.000
ItalicAngle: 0
UnderlinePosition: -100
UnderlineWidth: 50
Ascent: 800
Descent: 200
InvalidEm: 0
LayerCount: 3
Layer: 0 0 "Stra+AX4A-nji" 1
Layer: 1 0 "Prednji" 0
Layer: 2 0 "Stra+AX4A-nji 2" 1
XUID: [1021 687 1148527486 12572]
OS2Version: 0
OS2_WeightWidthSlopeOnly: 0
OS2_UseTypoMetrics: 1
CreationTime: 1760626896
ModificationTime: 1760985612
OS2TypoAscent: 0
OS2TypoAOffset: 1
OS2TypoDescent: 0
OS2TypoDOffset: 1
OS2TypoLinegap: 0
OS2WinAscent: 0
OS2WinAOffset: 1
OS2WinDescent: 0
OS2WinDOffset: 1
HheadAscent: 0
HheadAOffset: 1
HheadDescent: 0
HheadDOffset: 1
OS2Vendor: 'PfEd'
MarkAttachClasses: 1
DEI: 91125
Encoding: iso8859-2
UnicodeInterp: none
NameList: AGL For New Fonts
DisplaySize: -48
AntiAlias: 1
FitToEm: 0
WinInfo: 0 38 13
BeginPrivate: 0
EndPrivate
BeginChars: 256 21

StartChar: K
Encoding: 75 75 0
Width: 575
Flags: HW
LayerCount: 3
Fore
SplineSet
344.452148438 561 m 1024
12.5478515625 1 m 1
 39.1650390625 46.0751953125 65.4775390625 84.3056640625 68.5478515625 160 c 1
 86.1669921875 145.552734375 108.943359375 141.834960938 134.547851562 144 c 1
 92.775390625 108 75.08984375 73 53 37 c 1
 98.0615234375 43.771484375 123 56 221 40 c 1
 135.665039062 251.659179688 161.105344353 519.76588821 218 737 c 1
 185.734375 722.592773438 156.599609375 714.49609375 96 643 c 1
 90.8681640625 660.3515625 73.296875 668.868164062 58 679 c 1
 140 701 203 749 252 797 c 1
 239.833007812 744.883789062 196.170898438 532.987304688 203 430 c 1
 230.646484375 451.514648438 379.962185748 622.416893281 401 758 c 1
 429 737 434 747 467 745 c 1
 419.619140625 680.544921875 344.452148438 561 344.452148438 561 c 1
 344.452148438 561 262.0859375 446.994140625 218 413 c 1
 333.832061095 352.008532198 409.772202862 370.747864709 561 382 c 1
 468.19921875 254.24609375 477.643554687 -5.2871093753 475.547851562 1 c 0
 472.547851562 10 427.127929688 13.2509765625 417.547851562 1 c 1
 473.702675241 205.707302866 480.141601562 281.192382812 535 364 c 1
 362.234375 324.668945312 282.80859375 351.643554688 201 394 c 5
 174 344 221.813189255 30.5863037023 265.547851562 10 c 0
 288.8359375 -0.9619140625 128.560546875 52.9833984375 12.5478515625 1 c 1
EndSplineSet
EndChar

StartChar: F
Encoding: 70 70 1
Width: 551
Flags: HW
LayerCount: 3
Fore
SplineSet
15 13 m 1
 107.6640625 245.036132812 192.993164062 398.788085938 147 758 c 1
 119.5625 735.166015625 107 688 36 661 c 1
 42.9990234375 683 48.9990234375 699 36 721 c 1
 108 718 130 771 152 794 c 1
 199.387695312 746.016601562 444.194335938 772.846679688 525 790 c 0
 532.291015625 791.547851562 479.76953125 680.71484375 527 677 c 1
 508.1328125 675.111328125 500.291992188 682.508789062 470 671 c 1
 468.858398438 700.05078125 481.181640625 735.614257812 497 762 c 1
 390.663085938 754.020507812 270.852539062 733.209960938 168 761 c 1
 173 716 185 554 183 464 c 1
 222.166015625 453.11328125 283.135742188 455.811523438 329 474 c 5
 314 452 310 450 317 416 c 5
 280.119140625 450.0546875 214.19921875 447.723632812 181 446 c 1
 180 372 75.8076171875 -36.1796875 72 0 c 0
 70.2685546875 16.451171875 20.494140625 22.322265625 15 13 c 1
EndSplineSet
EndChar

StartChar: l
Encoding: 108 108 2
Width: 225
Flags: HW
LayerCount: 3
Fore
SplineSet
0 0 m 1
 -7.8681640625 26.138671875 47.041015625 235.387695312 172 734 c 1
 149.870117188 716.842773438 136.334960938 702.595703125 107 683 c 1
 107 683 100.186523438 697.287109375 103 697 c 0
 114.4765625 695.829101562 197.711914062 781.096679688 198 781 c 1
 164.33203125 586.353515625 49.958984375 175.73046875 48 63 c 1
 102.150390625 83.0205078125 149 123 193 170 c 1
 193 170 198.999023438 166.873046875 198 163 c 0
 190 132 73.57421875 33.0263671875 0 0 c 1
EndSplineSet
EndChar

StartChar: e
Encoding: 101 101 3
Width: 427
Flags: HW
LayerCount: 3
Fore
SplineSet
3 1 m 1
 44.02734375 74.0048828125 137 175 137 175 c 1
 114 192 101 201 96 217 c 0
 119 231 l 0
 121.615234375 206.793945312 138 195 152 189 c 1
 159.168945312 195.796875 347.463867188 397.75390625 389 407 c 1
 392.512695312 406.717773438 416 154 280 133 c 1
 243 130 216 140 158 164 c 1
 116 94 111 89 83 26 c 1
 179 18 293 56 403 158 c 1
 425 150 l 1
 307 58 259 -8 3 1 c 1
168 180 m 1
 218.114257812 152.48828125 290.458007812 139.442382812 318 173 c 1
 330 213 342 255 358 360 c 1
 290.224609375 317.577148438 227.928710938 247.23828125 168 180 c 1
EndSplineSet
EndChar

StartChar: a
Encoding: 97 97 4
Width: 407
Flags: HW
LayerCount: 3
Fore
SplineSet
133 91 m 1
 238 145 l 1
 244 185 248 209 260 272 c 1
 217.4609375 228.294921875 174 173 174 173 c 1
 174 173 156 131 133 91 c 1
5 5 m 1
 91.3720703125 105.346679688 165 196 262 297 c 1
 274 344 270 321 285 371 c 1
 188 292 180 294 92 222 c 1
 101.073242188 245.58984375 95.2236328125 247.108398438 78 277 c 1
 168 321 209 349 314 417 c 1
 268 239 280 263 261 152 c 1
 386 221 l 1
 385 213 387 209 392 207 c 1
 259 127 l 1
 259 127 241.587890625 3.04296875 242 5 c 0
 243.333007812 11.3330078125 220.333007812 8.3330078125 219 4 c 1
 234 120 l 1
 5 5 l 1
EndSplineSet
EndChar

StartChar: i
Encoding: 105 105 5
Width: 211
Flags: HW
LayerCount: 3
Fore
SplineSet
135 398 m 0
 135 388 140.965820312 377.669921875 149 377 c 0
 161 376 167.330078125 386.965820312 168 395 c 0
 169 407 164 416 154 418 c 0
 145.120117188 419.776367188 135 410 135 398 c 0
3 4 m 1
 80 208 94 235 134 331 c 1
 138.306640625 334.388671875 142.49609375 338.009765625 152 331 c 1
 154.482421875 269.153320312 128.946289062 154.301757812 142 125 c 1
 170 161 176 170 193 198 c 1
 205 193 l 1
 175 144 124 75.0009765625 105 65 c 0
 91.6044921875 57.94921875 112.513671875 171.15625 116 240 c 1
 80 141 56 101 20 3 c 1
 13.3349609375 3.861328125 9.6669921875 1.501953125 3 4 c 1
EndSplineSet
EndChar

StartChar: o
Encoding: 111 111 6
Width: 474
Flags: HW
LayerCount: 3
Fore
SplineSet
178 305 m 1
 35 267 -14.748046875 152.272460938 4 78 c 0
 30 -25 168.991210938 -6.8076171875 229 27 c 0
 300 67 320.662109375 109.889648438 333 127 c 0
 369.555664062 177.696289062 382.509765625 293.483398438 330 336 c 0
 256.00390625 395.913085938 198.161132812 350.922851562 190 321 c 0
 184 299 187.287109375 279.479492188 207 259 c 0
 232.833007812 232.161132812 319.966796875 237.427734375 365 261 c 0
 429.251953125 294.631835938 410 282 470 324 c 1
 446 343 l 1
 396 302 373 295 359 287 c 0
 317.49609375 263.284179688 248 260.000976562 234 272 c 0
 225.342773438 279.419921875 207.024414062 291.08984375 214 317 c 0
 221 343 278.258789062 350.881835938 318 309 c 0
 373.4921875 250.518554688 322 148 310 131 c 0
 296.549804688 111.9453125 268.78515625 76.3291015625 221 51 c 0
 126.721679688 1.02734375 50.044921875 29.162109375 34 65 c 0
 27.748046875 78.9638671875 88.0009765625 192 137 267 c 0
 140.02734375 271.633789062 214 305 262 279 c 1
 262 279 270 296 270 297 c 0
 270 301.178710938 229 319 178 305 c 1
EndSplineSet
EndChar

StartChar: r
Encoding: 114 114 7
Width: 347
Flags: HW
LayerCount: 3
Fore
SplineSet
-1 212 m 1
 75.98828125 279.864257812 66.4501953125 257.65234375 121 341 c 1
 128.126953125 349.53125 138 345 137 338 c 1
 116.44921875 230.830078125 81 123 95 149 c 1
 150.286132812 256.958984375 162.716796875 271.28515625 223 387 c 1
 231.666015625 398.333984375 236 391 241 372 c 1
 245 356 245 315 243 286 c 1
 252.991210938 290.243164062 299.791015625 349.61328125 320 379 c 1
 323.99609375 382.6640625 330.99609375 369.998046875 335 367 c 1
 245 239 233 239 206 221 c 1
 190.674804688 223.24609375 218.758789062 308.651367188 219 344 c 1
 135.834960938 187.724609375 50.892578125 6.4033203125 37 -1 c 1
 30.0732421875 49.974609375 113.717773438 302.874023438 112 300 c 0
 86.7578125 257.766601562 14.12890625 160.416992188 25 181 c 1
 20.833984375 201.81640625 24.021484375 198.8671875 -1 212 c 1
EndSplineSet
EndChar

StartChar: d
Encoding: 100 100 8
Width: 414
Flags: HW
LayerCount: 3
Fore
SplineSet
139 94 m 1
 242 146 l 1
 248 186 251 200 263 263 c 1
 220.4609375 219.294921875 181 170 181 170 c 1
 181 170 159 136 139 94 c 1
7 4 m 1
 93.3720703125 104.346679688 173 203 270 304 c 1
 282 351 361 699 376 749 c 1
 289.93359375 656.115234375 297.73046875 667.78515625 209 602 c 1
 218.073242188 625.58984375 229.223632812 644.108398438 212 674 c 1
 305.126953125 707.99609375 314.221679688 729.578125 410 804 c 1
 364 626 290 267 271 156 c 1
 384 226 l 1
 383 218 389 208 394 206 c 1
 267 128 l 1
 267 128 245.587890625 3.04296875 246 5 c 0
 247.333007812 11.3330078125 222.333007812 7.3330078125 221 3 c 1
 239 121 l 1
 7 4 l 1
EndSplineSet
EndChar

StartChar: n
Encoding: 110 110 9
Width: 338
Flags: HW
LayerCount: 3
Fore
SplineSet
-4 238 m 1
 72.98828125 305.864257812 83 298 140 372 c 1
 147.126953125 380.53125 157 376 156 369 c 1
 135.44921875 261.830078125 102 137 116 163 c 1
 182 276 198 279 259 395 c 1
 267.666015625 406.333984375 272 399 277 380 c 1
 281 364 227 95 225 66 c 1
 234.991210938 70.2431640625 305.791015625 155.61328125 326 185 c 1
 329.99609375 188.6640625 332.99609375 181.998046875 337 179 c 1
 240 58 225 45 205 29 c 1
 189.674804688 31.24609375 228.758789062 260.651367188 229 296 c 1
 120 162 46.892578125 4.4033203125 33 -3 c 1
 26.0732421875 47.974609375 132.717773438 333.874023438 131 331 c 0
 105.7578125 288.766601562 11.12890625 186.416992188 22 207 c 1
 17.833984375 227.81640625 21.021484375 224.8671875 -4 238 c 1
EndSplineSet
EndChar

StartChar: Cacute
Encoding: 198 262 10
Width: 496
Flags: HW
LayerCount: 3
Fore
SplineSet
230 858 m 5
 246.682617188 879.37890625 281.346679688 937.986328125 285 962 c 5
 295.333007812 951.88671875 305.666992188 947.450195312 316 946 c 5
 294.002929688 903.565429688 252.026367188 866.627929688 236 851 c 5
 230 858 l 5
462 293 m 1
 401 274 337.064453125 8.255859375 334 9 c 1
 326.5625 66.84765625 89.3994140625 350.084960938 12 361 c 1
 246.561523438 596.357421875 241.21484375 792.176757812 234 785 c 1
 355.708007812 703.208984375 376.018554688 645.373046875 424 581 c 1
 420 632 412.080078125 637.274414062 430 739 c 1
 445.333984375 730.853515625 460.666992188 736.600585938 476 741 c 1
 442.26953125 699.700195312 441.720703125 604.049804688 436 527 c 1
 381.094726562 609.517578125 330.305664062 688.725585938 254 745 c 1
 236.5234375 632.596679688 224.154296875 577.415039062 76 356 c 1
 201 250 265.221679688 176 330 67 c 1
 349.092773438 162.944335938 382.463867188 265.98828125 406 347 c 1
 421.609375 323.83203125 438.477539062 302.791992188 462 293 c 1
EndSplineSet
EndChar

StartChar: Ccaron
Encoding: 200 268 11
Width: 456
Flags: HW
LayerCount: 3
Fore
SplineSet
462 293 m 5
 401 274 337.064453125 8.255859375 334 9 c 5
 326.5625 66.84765625 89.3994140625 350.084960938 12 361 c 5
 246.561523438 596.357421875 241.21484375 792.176757812 234 785 c 5
 355.708007812 703.208984375 376.018554688 645.373046875 424 581 c 5
 420 632 412.080078125 637.274414062 430 739 c 5
 445.333984375 730.853515625 460.666992188 736.600585938 476 741 c 5
 442.26953125 699.700195312 441.720703125 604.049804688 436 527 c 5
 381.094726562 609.517578125 330.305664062 688.725585938 254 745 c 5
 236.5234375 632.596679688 224.154296875 577.415039062 76 356 c 5
 201 250 265.221679688 176 330 67 c 5
 349.092773438 162.944335938 382.463867188 265.98828125 406 347 c 5
 421.609375 323.83203125 438.477539062 302.791992188 462 293 c 5
185 942 m 17
 211.264648438 915.751953125 218.999023438 883.33203125 230 852 c 1
 249.697265625 875.501953125 268.946289062 899.629882812 283 931 c 1
 274 933 l 1
 262.149414062 910.567382812 251.533203125 887.3125 232 870 c 1
 234.2734375 900 223.962890625 930 215 960 c 1
 185 942 l 17
EndSplineSet
EndChar

StartChar: Zcaron
Encoding: 174 381 12
Width: 468
Flags: HW
LayerCount: 3
Fore
SplineSet
139 899 m 21
 165.264648438 872.751953125 172.999023438 840.33203125 184 809 c 5
 203.697265625 832.501953125 222.946289062 856.629882812 237 888 c 5
 228 890 l 5
 216.149414062 867.567382812 205.533203125 844.3125 186 827 c 5
 188.2734375 857 177.962890625 887 169 917 c 5
 139 899 l 21
-24 8 m 1
 31.7732769233 53.4448923079 165 381 165 381 c 1
 156 382 140.586064607 389.628166921 122 388 c 1
 127.333315601 395.999999969 128.666992188 416 126 424 c 1
 141.666666669 410.067981537 157 408 173 405 c 1
 173 405 251.31757327 614.416303303 286 691 c 1
 220.461914062 698.286132812 179.047851562 682.616210938 79 740 c 1
 78.2119140625 740.296875 55 676 87 630 c 1
 56 642 18.2431640625 629.276367188 22 617 c 1
 11.1953125 675.999023438 43.4111328125 746 52 805 c 1
 59.0849609375 758.806640625 229 688 332 719 c 1
 319.6583883 731.902594049 203 399 203 399 c 1
 217.42578125 394.297851562 235.91015625 395.185546875 253 397 c 1
 248.341796875 390.93359375 239.432617188 376.321289062 242 365 c 1
 227.660770175 372.774658828 211 374 194 376 c 1
 194 376 110.420866697 131.863316964 86 77 c 1
 247.51171875 175.658203125 333 72 397 31 c 1
 397.950195312 108.72265625 367.330078125 178.09765625 403 265 c 1
 417.849609375 240.286132812 445.31640625 240.250976562 468 244 c 1
 393.01953125 158.681640625 428.966796875 82.748046875 408 2 c 1
 192 172 91.4853515625 42.5595703125 -24 8 c 1
EndSplineSet
EndChar

StartChar: Scaron
Encoding: 169 352 13
Width: 290
Flags: HW
LayerCount: 3
Fore
SplineSet
18 185 m 1
 15.8193359375 163.006835938 9.935546875 144.362304688 -4 133 c 1
 40.7724609375 136.875 176 36 201 0 c 1
 182.420898438 127.502929688 256.013671875 341.372070312 342 391 c 1
 269.44140625 396.62109375 237.41796875 390.715820312 95 397 c 5
 183.456054688 590.327148438 175.721679688 593.489257812 193 712 c 1
 220.67578125 657.693359375 254.009765625 577.262695312 286 533 c 1
 298.979492188 557.201171875 314.399414062 557.00390625 330 555 c 1
 284.427734375 592.873046875 227.462890625 707.209960938 183 782 c 1
 175 598 82 465 14 379 c 1
 14 382.666992188 298 377.614257812 298 376 c 1
 204.405273438 282.217773438 171.7734375 165.040039062 175 45 c 1
 153.3828125 80.974609375 114.89453125 102.389648438 18 185 c 1
140 940 m 17
 166.264648438 913.751953125 173.999023438 881.33203125 185 850 c 1
 204.697265625 873.501953125 223.946289062 897.629882812 238 929 c 1
 229 931 l 1
 217.149414062 908.567382812 206.533203125 885.3125 187 868 c 1
 189.2734375 898 178.962890625 928 170 958 c 1
 140 940 l 17
EndSplineSet
EndChar

StartChar: Dcroat
Encoding: 208 272 14
Width: 454
Flags: HW
LayerCount: 3
Fore
SplineSet
231 46 m 5
 248 49 466.739257812 138.829101562 479 438 c 4
 484 560 387 738 183 760 c 5
 257.9921875 671.954101562 264 485 214 402 c 5
 260 402 l 5
 255.666992188 394 256.000976562 386 261 378 c 5
 261 378 242 381 206 381 c 4
 204.938476562 381 206.213867188 374.008789062 209 361 c 4
 236.435546875 232.877929688 245 135 231 46 c 5
48 0 m 5
 62.197265625 22.63671875 53 126 32 145 c 5
 54 148 68.095703125 146.594726562 78 171 c 5
 101.854492188 123.474609375 90.548828125 69.1845703125 78 19 c 5
 131 26 176 36 203 39 c 5
 229.102539062 157.747070312 173.97265625 382 173.97265625 382 c 5
 153 383 142 384 123 379 c 5
 124.487304688 388.666992188 125.874023438 398.333007812 119 408 c 5
 143 402 160 402 166 402 c 5
 218.549804688 498.224609375 215 681 164 763 c 5
 138 772 101 776 44 780 c 5
 39 762 73 674 65 641 c 5
 61 654 50 669 7 655 c 5
 37 689 28.0673828125 797 22 797 c 5
 264.065429688 791.20703125 511 721 513 445 c 4
 515.858398438 50.5419921875 223 21 48 0 c 5
EndSplineSet
EndChar

StartChar: scaron
Encoding: 185 353 15
Width: 264
Flags: HW
LayerCount: 3
Fore
SplineSet
172 574 m 21
 198.264648438 547.751953125 205.999023438 515.33203125 217 484 c 5
 236.697265625 507.501953125 255.946289062 531.629882812 270 563 c 5
 261 565 l 5
 249.149414062 542.567382812 238.533203125 519.3125 219 502 c 5
 221.2734375 532 210.962890625 562 202 592 c 5
 172 574 l 21
24 212 m 1
 27.431640625 237.034179688 8.7958984375 250.905273438 -15 260 c 1
 -19.3310546875 240.803710938 140.344726562 317.466796875 217 409 c 1
 272.58203125 219.400390625 272.000072337 23.9996796497 179 3 c 0
 118.088867188 -10.75390625 62 58 43 108 c 1
 63 117 l 1
 62.078125 104.91796875 113.794915561 -1.61717426036 178 29 c 0
 278.823242188 77.0791015625 205.307617188 370.57421875 207 370 c 1
 143.609375 300.8203125 140.478515625 339.055664062 24 212 c 1
EndSplineSet
EndChar

StartChar: zcaron
Encoding: 190 382 16
Width: 380
Flags: HW
LayerCount: 3
Fore
SplineSet
152 552 m 21
 178.264648438 525.751953125 185.999023438 493.33203125 197 462 c 5
 216.697265625 485.501953125 235.946289062 509.629882812 250 541 c 5
 241 543 l 5
 229.149414062 520.567382812 218.533203125 497.3125 199 480 c 5
 201.2734375 510 190.962890625 540 182 570 c 5
 152 552 l 21
-5 0 m 0
 -20 0 175.737304688 212.051757812 293 371 c 1
 208.723632812 360.48046875 125.423828125 361.946289062 33 381 c 1
 43 403 l 1
 129.0703125 383.663085938 226.334960938 381.762695312 331 391 c 1
 188.838867188 201.09765625 179.782226562 187.547851562 103 50 c 1
 212.399414062 80.7880859375 256.56640625 97.1572265625 356 134 c 1
 356 134 365.378349329 118.165053926 360 116 c 0
 192.454275958 48.554487374 60 0 -5 0 c 0
EndSplineSet
EndChar

StartChar: cacute
Encoding: 230 263 17
Width: 312
Flags: HW
LayerCount: 3
Fore
SplineSet
217 484 m 5
 233.682617188 505.37890625 268.346679688 563.986328125 272 588 c 5
 282.333007812 577.88671875 292.666992188 573.450195312 303 572 c 5
 281.002929688 529.565429688 239.026367188 492.627929688 223 477 c 5
 217 484 l 5
263 396 m 1
 75 466 -170.311886597 -34.5463050241 122 2 c 0
 214.653474324 13.5840042415 253 118 261 137 c 1
 246 147 l 1
 246 147 205.497070312 26.91015625 120 23 c 1
 -99.7890625 12.9482421875 106.111328125 421.163085938 254 372 c 1
 257.291015625 372.310546875 259.396484375 397.572265625 263 396 c 1
EndSplineSet
EndChar

StartChar: ccaron
Encoding: 232 269 18
Width: 285
Flags: HW
LayerCount: 3
Fore
SplineSet
163 554 m 21
 189.264648438 527.751953125 196.999023438 495.33203125 208 464 c 5
 227.697265625 487.501953125 246.946289062 511.629882812 261 543 c 5
 252 545 l 5
 240.149414062 522.567382812 229.533203125 499.3125 210 482 c 5
 212.2734375 512 201.962890625 542 193 572 c 5
 163 554 l 21
272 381 m 1
 84 451 -170.311886597 -34.5463050241 122 2 c 0
 214.653474324 13.5840042415 253 118 261 137 c 1
 248 145 l 1
 248 145 203.497070312 30.91015625 118 27 c 1
 -101.815429688 17.5546875 111.932617188 393.162109375 259 363 c 1
 262.291015625 363.310546875 268.396484375 382.572265625 272 381 c 1
EndSplineSet
EndChar

StartChar: dcroat
Encoding: 240 273 19
Width: 382
Flags: HW
LayerCount: 3
Fore
SplineSet
92 89 m 1
 195 141 l 1
 201 181 204 195 216 258 c 1
 173.4609375 214.294921875 134 165 134 165 c 1
 134 165 112 131 92 89 c 1
-40 -1 m 1
 46.3720703125 99.3466796875 126 198 223 299 c 1
 227.04082255 314.826554987 254 438 254 438 c 1
 246.038470662 437.786723015 224 436 209 436 c 1
 217.428874103 447.892371071 215.410279855 454.286103662 214 461 c 1
 231.78873484 459.056386778 245.509234684 460.376963318 261 460 c 1
 261 460 322.582346324 722.60782108 329 744 c 1
 242.93359375 651.115234375 250.73046875 662.78515625 162 597 c 1
 171.073242188 620.58984375 182.223632812 639.108398438 165 669 c 1
 258.126953125 702.99609375 267.221679688 724.578125 363 799 c 1
 340.494195484 711.912321654 286 460 286 460 c 1
 297.752929688 459.607421875 317.638671875 458.395507812 332 458 c 1
 329.333984375 450.333007812 323.186200541 442.666666667 325 435 c 1
 313 435 297 437 282 436 c 1
 282 436 231.782440848 196.465838637 224 151 c 1
 337 221 l 1
 336 213 342 203 347 201 c 1
 220 123 l 1
 220 123 198.587890625 -1.95703125 199 0 c 0
 200.333007812 6.3330078125 175.333007812 2.3330078125 174 -2 c 1
 192 116 l 1
 -40 -1 l 1
EndSplineSet
EndChar

